<svg xmlns="http://www.w3.org/2000/svg" width="900" height="320" viewBox="0 0 900 320" role="img" aria-labelledby="title desc">
  <title id="title">morgue</title>
  <desc id="desc">A translucent liquid glass profile header for a self taught developer.</desc>
  <defs>
    <linearGradient id="space" x1="0" y1="0" x2="1" y2="1">
      <stop offset="0" stop-color="#070910"/>
      <stop offset="0.52" stop-color="#101526"/>
      <stop offset="1" stop-color="#090b13"/>
    </linearGradient>
    <radialGradient id="orbA">
      <stop stop-color="#829dff" stop-opacity=".74"/>
      <stop offset="1" stop-color="#829dff" stop-opacity="0"/>
    </radialGradient>
    <radialGradient id="orbB">
      <stop stop-color="#b86cff" stop-opacity=".62"/>
      <stop offset="1" stop-color="#b86cff" stop-opacity="0"/>
    </radialGradient>
    <linearGradient id="glass" x1="0" y1="0" x2="0" y2="1">
      <stop stop-color="#ffffff" stop-opacity=".18"/>
      <stop offset=".5" stop-color="#a9bbdf" stop-opacity=".07"/>
      <stop offset="1" stop-color="#6f7ba2" stop-opacity=".11"/>
    </linearGradient>
    <linearGradient id="edge" x1="0" y1="0" x2="1" y2="1">
      <stop stop-color="#ffffff" stop-opacity=".58"/>
      <stop offset=".42" stop-color="#a5baff" stop-opacity=".12"/>
      <stop offset="1" stop-color="#d69cff" stop-opacity=".35"/>
    </linearGradient>
    <filter id="blur"><feGaussianBlur stdDeviation="32"/></filter>
    <filter id="shadow" x="-20%" y="-20%" width="140%" height="150%">
      <feDropShadow dx="0" dy="18" stdDeviation="18" flood-color="#00030a" flood-opacity=".72"/>
    </filter>
    <pattern id="grid" width="32" height="32" patternUnits="userSpaceOnUse">
      <path d="M32 0H0V32" fill="none" stroke="#aab9dc" stroke-opacity=".045"/>
    </pattern>
  </defs>
  <rect width="900" height="320" rx="28" fill="url(#space)"/>
  <rect width="900" height="320" rx="28" fill="url(#grid)"/>
  <circle cx="220" cy="55" r="190" fill="url(#orbA)" filter="url(#blur)"/>
  <circle cx="760" cy="270" r="210" fill="url(#orbB)" filter="url(#blur)"/>
  <path d="M76 159C76 88 129 54 210 67c62 10 93-38 165-25 69 13 76 55 147 45 92-13 181-5 250 50 46 37 69 106 24 137-42 29-114-6-174 0-77 8-126 27-210 6-70-18-119 20-201 4-90-17-135-58-135-125Z" fill="url(#glass)" stroke="url(#edge)" stroke-width="1.5" filter="url(#shadow)"/>
  <path d="M113 134c106-75 185 10 287-38 91-42 186 4 257 4" fill="none" stroke="#fff" stroke-opacity=".25" stroke-width="2" stroke-linecap="round"/>
  <circle cx="128" cy="112" r="4" fill="#dce7ff" fill-opacity=".82"/>
  <circle cx="146" cy="112" r="4" fill="#9db2ff" fill-opacity=".72"/>
  <circle cx="164" cy="112" r="4" fill="#c69aff" fill-opacity=".72"/>
  <text x="450" y="178" fill="#f2f5ff" font-family="JetBrains Mono, ui-monospace, monospace" font-size="58" font-weight="600" text-anchor="middle" letter-spacing="9">morgue</text>
  <text x="450" y="218" fill="#abb7cc" font-family="JetBrains Mono, ui-monospace, monospace" font-size="15" text-anchor="middle" letter-spacing="4">17 // SELF TAUGHT DEV</text>
  <path d="M372 238h156" stroke="#dce7ff" stroke-opacity=".28" stroke-linecap="round"/>
</svg>
